<?xml version="1.0" encoding="UTF-8" standalone="no"?>
<svg
   xmlns:dc="http://purl.org/dc/elements/1.1/"
   xmlns:cc="http://creativecommons.org/ns#"
   xmlns:rdf="http://www.w3.org/1999/02/22-rdf-syntax-ns#"
   xmlns:svg="http://www.w3.org/2000/svg"
   xmlns="http://www.w3.org/2000/svg"
   xmlns:sodipodi="http://sodipodi.sourceforge.net/DTD/sodipodi-0.dtd"
   xmlns:inkscape="http://www.inkscape.org/namespaces/inkscape"
   version="1.1"
   id="svg2"
   xml:space="preserve"
   width="666.66669"
   height="666.66669"
   viewBox="0 0 666.66669 666.66669"
   sodipodi:docname="goa_eule.ai"><metadata
     id="metadata8"><rdf:RDF><cc:Work
         rdf:about=""><dc:format>image/svg+xml</dc:format><dc:type
           rdf:resource="http://purl.org/dc/dcmitype/StillImage" /></cc:Work></rdf:RDF></metadata><defs
     id="defs6"><clipPath
       clipPathUnits="userSpaceOnUse"
       id="clipPath18"><path
         d="M 0,500 H 500 V 0 H 0 Z"
         id="path16" /></clipPath></defs><sodipodi:namedview
     pagecolor="#ffffff"
     bordercolor="#666666"
     borderopacity="1"
     objecttolerance="10"
     gridtolerance="10"
     guidetolerance="10"
     inkscape:pageopacity="0"
     inkscape:pageshadow="2"
     inkscape:window-width="640"
     inkscape:window-height="480"
     id="namedview4" /><g
     id="g10"
     inkscape:groupmode="layer"
     inkscape:label="goa_eule"
     transform="matrix(1.3333333,0,0,-1.3333333,0,666.66667)"><g
       id="g12"><g
         id="g14"
         clip-path="url(#clipPath18)"><g
           id="g20"
           transform="translate(71,204)"><path
             d="m 0,0 c -24.5,39.5 -31,123 -31,123 0,0 4.619,-4.375 6.559,-5.938 13.941,46.438 49.833,84.815 49.833,84.815 0,0 1.108,-3.377 2.608,-4.877 75.5,63.5 109.5,26.5 264.5,68.5 2,0 -63.571,-36.31 -73.286,-35.655 -9.714,0.655 -25.714,1.655 -29.292,1.612 1.578,2.043 0.111,2.721 -0.655,2.882 -37.767,-0.839 -65.712,-11.785 -65.712,-11.785 0,0 1.674,3.024 -0.69,2.985 C 101.5,220.5 71.833,203.308 61.5,197.5 c -2.171,-1.221 -1.208,1.532 -1.621,1.453 C 51.5,197.5 32.5,176.5 33.5,175.5 c 1,-1 23.253,21.106 24.126,20.053 C 58.5,194.5 55.5,190.5 56.5,190.5 c 19,14 62,31 62,31 0,0 -0.461,-2.838 2,-3 2.461,-0.162 36.5,14.5 65,13 1.579,-0.083 -0.5,-2.602 1.143,-2.602 85.857,-9.398 132.419,1.055 132.419,1.055 0,0 -6.562,-9.453 -22.562,-15.453 17,-4 46,5 46,5 0,0 -25,-22 -24,-22 12,0 18.65,2.454 18.65,2.454 L 336.5,192.5 c 0,0 9,2 8,2 -1,0 -2.981,-11.99 -0.49,-16.995 2.49,-5.005 8.49,0.995 8.49,0.995 l -12,-38 c 0,0 3,22 2,28 -1,6 -9.564,-1.484 -9.564,-1.484 0,0 3.244,10.168 2.904,15.326 -0.34,5.158 -8.62,-0.054 -8.62,-0.054 0,0 1.28,1.212 -1.013,5.827 C 324.5,195.5 303.5,191.5 303.5,192.5 c 11,11 10,13 10,13 l -35,4 c 0,0 6.666,4.725 6.333,6.363 C 223.5,224.5 215.5,223.5 210.5,223.5 c -15,0 -41,-3 -41,-3 0,0 2,3 1,3 -44,-3 -64.009,-11.723 -64.009,-11.723 0,0 -65.991,-21.277 -98.991,-74.277 -26,-39 -22.413,-73.739 -22.413,-73.739 C -14.913,63.761 -18.5,48.5 0,0"
             style="fill:#000000;fill-opacity:1;fill-rule:nonzero;stroke:none"
             id="path22" /></g><g
           id="g24"
           transform="translate(71,204)"><path
             d="m 0,0 c -24.5,39.5 -31,123 -31,123 0,0 4.619,-4.375 6.559,-5.938 13.941,46.438 49.833,84.815 49.833,84.815 0,0 1.108,-3.377 2.608,-4.877 75.5,63.5 109.5,26.5 264.5,68.5 2,0 -63.571,-36.31 -73.286,-35.655 -9.714,0.655 -25.714,1.655 -29.292,1.612 1.578,2.043 0.111,2.721 -0.655,2.882 -37.767,-0.839 -65.712,-11.785 -65.712,-11.785 0,0 1.674,3.024 -0.69,2.985 C 101.5,220.5 71.833,203.308 61.5,197.5 c -2.171,-1.221 -1.208,1.532 -1.621,1.453 C 51.5,197.5 32.5,176.5 33.5,175.5 c 1,-1 23.253,21.106 24.126,20.053 C 58.5,194.5 55.5,190.5 56.5,190.5 c 19,14 62,31 62,31 0,0 -0.461,-2.838 2,-3 2.461,-0.162 36.5,14.5 65,13 1.579,-0.083 -0.5,-2.602 1.143,-2.602 85.857,-9.398 132.419,1.055 132.419,1.055 0,0 -6.562,-9.453 -22.562,-15.453 17,-4 46,5 46,5 0,0 -25,-22 -24,-22 12,0 18.65,2.454 18.65,2.454 L 336.5,192.5 c 0,0 9,2 8,2 -1,0 -2.981,-11.99 -0.49,-16.995 2.49,-5.005 8.49,0.995 8.49,0.995 l -12,-38 c 0,0 3,22 2,28 -1,6 -9.564,-1.484 -9.564,-1.484 0,0 3.244,10.168 2.904,15.326 -0.34,5.158 -8.62,-0.054 -8.62,-0.054 0,0 1.28,1.212 -1.013,5.827 C 324.5,195.5 303.5,191.5 303.5,192.5 c 11,11 10,13 10,13 l -35,4 c 0,0 6.666,4.725 6.333,6.363 C 223.5,224.5 215.5,223.5 210.5,223.5 c -15,0 -41,-3 -41,-3 0,0 2,3 1,3 -44,-3 -64.009,-11.723 -64.009,-11.723 0,0 -65.991,-21.277 -98.991,-74.277 -26,-39 -22.413,-73.739 -22.413,-73.739 C -14.913,63.761 -18.5,48.5 0,0 Z"
             style="fill:none;stroke:#ffffff;stroke-width:2;stroke-linecap:butt;stroke-linejoin:miter;stroke-miterlimit:10;stroke-dasharray:none;stroke-opacity:1"
             id="path26" /></g><g
           id="g28"
           transform="translate(88,214)"><path
             d="m 0,0 c 24.418,34.887 59.488,48.605 99.5,52.5 l -9,4 c 17.453,6.104 35.262,4.815 53,5 l -5,3 c 36.646,3.552 56.58,0.95 81,0 l -1,2 c 90.497,-7.768 145,26 167,109 -26.818,-52.437 -91,-75 -166.833,-67.5 -16.565,2.357 -32.89,4.965 -52.167,4.5 8.682,2.62 14.944,5.756 16,10 -16.141,-9.795 -26,-5 -101,-26 0,0 -33.808,-7.211 -49,-25 C 0.872,34.466 1.5,13.5 0,0"
             style="fill:#000000;fill-opacity:1;fill-rule:nonzero;stroke:none"
             id="path30" /></g><g
           id="g32"
           transform="translate(88,214)"><path
             d="m 0,0 c 24.418,34.887 59.488,48.605 99.5,52.5 l -9,4 c 17.453,6.104 35.262,4.815 53,5 l -5,3 c 36.646,3.552 56.58,0.95 81,0 l -1,2 c 90.497,-7.768 145,26 167,109 -26.818,-52.437 -91,-75 -166.833,-67.5 -16.565,2.357 -32.89,4.965 -52.167,4.5 8.682,2.62 14.944,5.756 16,10 -16.141,-9.795 -26,-5 -101,-26 0,0 -33.808,-7.211 -49,-25 C 0.872,34.466 1.5,13.5 0,0 Z"
             style="fill:none;stroke:#ffffff;stroke-width:2;stroke-linecap:butt;stroke-linejoin:miter;stroke-miterlimit:10;stroke-dasharray:none;stroke-opacity:1"
             id="path34" /></g><g
           id="g36"
           transform="translate(201.313,376.9678)"><path
             d="m 0,0 0.187,-2.468 5,1 12,8 z"
             style="fill:#000000;fill-opacity:1;fill-rule:nonzero;stroke:none"
             id="path38" /></g><g
           id="g40"
           transform="translate(201.313,376.9678)"><path
             d="m 0,0 0.187,-2.468 5,1 12,8 z"
             style="fill:none;stroke:#ffffff;stroke-width:2;stroke-linecap:butt;stroke-linejoin:miter;stroke-miterlimit:10;stroke-dasharray:none;stroke-opacity:1"
             id="path42" /></g><g
           id="g44"
           transform="translate(124.5122,360.209)"><path
             d="m 0,0 6.488,-4.709 c 29.5,11 15.5,-30 -3.244,-5.184 l -11.256,-4.816 c 39,-24 -38,-42 -9.985,-8.745 l -12.015,5.745 c -22,-31 36,-52 44,-11.75 74,5.75 -11,-36.25 5,-13.25 -48,-22 32,-12 32.623,3.562 0.395,16.924 -15.022,17.81 -35.623,13.438 19.691,9.854 19,27 2.25,28.75 l -13.25,1.25 z"
             style="fill:#000000;fill-opacity:1;fill-rule:nonzero;stroke:none"
             id="path46" /></g><g
           id="g48"
           transform="translate(124.5122,360.209)"><path
             d="m 0,0 6.488,-4.709 c 29.5,11 15.5,-30 -3.244,-5.184 l -11.256,-4.816 c 39,-24 -38,-42 -9.985,-8.745 l -12.015,5.745 c -22,-31 36,-52 44,-11.75 74,5.75 -11,-36.25 5,-13.25 -48,-22 32,-12 32.623,3.562 0.395,16.924 -15.022,17.81 -35.623,13.438 19.691,9.854 19,27 2.25,28.75 l -13.25,1.25 z"
             style="fill:none;stroke:#ffffff;stroke-width:2;stroke-linecap:butt;stroke-linejoin:miter;stroke-miterlimit:10;stroke-dasharray:none;stroke-opacity:1"
             id="path50" /></g><g
           id="g52"
           transform="translate(162.5,367.5)"><path
             d="M 0,0 11,-3 C 3.508,-15.365 4.922,-25.586 18,-33 -6,-33 -7.757,-14.834 0,0"
             style="fill:#000000;fill-opacity:1;fill-rule:nonzero;stroke:none"
             id="path54" /></g><g
           id="g56"
           transform="translate(162.5,367.5)"><path
             d="M 0,0 11,-3 C 3.508,-15.365 4.922,-25.586 18,-33 -6,-33 -7.757,-14.834 0,0 Z"
             style="fill:none;stroke:#ffffff;stroke-width:2;stroke-linecap:butt;stroke-linejoin:miter;stroke-miterlimit:10;stroke-dasharray:none;stroke-opacity:1"
             id="path58" /></g><g
           id="g60"
           transform="translate(179.5,364.5)"><path
             d="M 0,0 9,2 17,-3 1,-7 Z"
             style="fill:#000000;fill-opacity:1;fill-rule:nonzero;stroke:none"
             id="path62" /></g><g
           id="g64"
           transform="translate(179.5,364.5)"><path
             d="M 0,0 9,2 17,-3 1,-7 Z"
             style="fill:none;stroke:#ffffff;stroke-width:2;stroke-linecap:butt;stroke-linejoin:miter;stroke-miterlimit:10;stroke-dasharray:none;stroke-opacity:1"
             id="path66" /></g><g
           id="g68"
           transform="translate(125.5,366.5)"><path
             d="M 0,0 C 18.98,7.101 34.595,10.769 47.124,11.288 48.321,11.337 58.51,15.021 58,14 57,12 57,12 57,11 57,9.342 71.846,15.583 73,15 74.403,14.291 64,12 73,10 74.741,9.613 71.409,6.711 73.071,5.634 54.212,8.963 28.854,6.137 0,0"
             style="fill:#000000;fill-opacity:1;fill-rule:nonzero;stroke:none"
             id="path70" /></g><g
           id="g72"
           transform="translate(125.5,366.5)"><path
             d="M 0,0 C 18.98,7.101 34.595,10.769 47.124,11.288 48.321,11.337 58.51,15.021 58,14 57,12 57,12 57,11 57,9.342 71.846,15.583 73,15 74.403,14.291 64,12 73,10 74.741,9.613 71.409,6.711 73.071,5.634 54.212,8.963 28.854,6.137 0,0 Z"
             style="fill:none;stroke:#ffffff;stroke-width:2;stroke-linecap:butt;stroke-linejoin:miter;stroke-miterlimit:10;stroke-dasharray:none;stroke-opacity:1"
             id="path74" /></g><g
           id="g76"
           transform="translate(204.1982,367.9102)"><path
             d="m 0,0 c 5.338,0.34 10.16,1.756 14.302,4.59 0.503,-2.649 -0.815,-4.324 -4,-5 1.099,-3.351 3.239,-3.986 6,-3 0.833,-1.667 -0.5,-3.334 -4,-5 0.809,-2.487 3.72,-2.63 7.325,-2 -1.153,-8.707 -14.248,-23.68 -35.325,-36 18.183,18.492 29.379,33.403 16.548,36 l 2.452,5 -5,2 z"
             style="fill:#000000;fill-opacity:1;fill-rule:nonzero;stroke:none"
             id="path78" /></g><g
           id="g80"
           transform="translate(204.1982,367.9102)"><path
             d="m 0,0 c 5.338,0.34 10.16,1.756 14.302,4.59 0.503,-2.649 -0.815,-4.324 -4,-5 1.099,-3.351 3.239,-3.986 6,-3 0.833,-1.667 -0.5,-3.334 -4,-5 0.809,-2.487 3.72,-2.63 7.325,-2 -1.153,-8.707 -14.248,-23.68 -35.325,-36 18.183,18.492 29.379,33.403 16.548,36 l 2.452,5 -5,2 z"
             style="fill:none;stroke:#ffffff;stroke-width:2;stroke-linecap:butt;stroke-linejoin:miter;stroke-miterlimit:10;stroke-dasharray:none;stroke-opacity:1"
             id="path82" /></g><g
           id="g84"
           transform="translate(85.5,329.5)"><path
             d="m 0,0 c -1.921,-16.109 1.732,-26.346 18,-26 -1.808,-5.874 -4.608,-6.313 -12,-9 1.045,3.069 2.755,5.116 0,7 -3.11,-1.506 -5.623,-2.028 -8,1 3.706,1.592 2.851,5.749 1,9 -1,2 -2.771,8.243 1,18"
             style="fill:#000000;fill-opacity:1;fill-rule:nonzero;stroke:none"
             id="path86" /></g><g
           id="g88"
           transform="translate(85.5,329.5)"><path
             d="m 0,0 c -1.921,-16.109 1.732,-26.346 18,-26 -1.808,-5.874 -4.608,-6.313 -12,-9 1.045,3.069 2.755,5.116 0,7 -3.11,-1.506 -5.623,-2.028 -8,1 3.706,1.592 2.851,5.749 1,9 -1,2 -2.771,8.243 1,18 z"
             style="fill:none;stroke:#ffffff;stroke-width:2;stroke-linecap:butt;stroke-linejoin:miter;stroke-miterlimit:10;stroke-dasharray:none;stroke-opacity:1"
             id="path90" /></g><g
           id="g92"
           transform="translate(61.437,278.4351)"><path
             d="M 0,0 C -1.576,4.663 -0.83,9.195 1.396,13.644 2.091,9.008 4.099,6.326 7.063,5.065 c -0.871,3.691 0.375,6.6 3,9 0.595,-5.155 2.062,-8.826 5,-10 1.381,3.167 3.842,5.39 7,7 2.738,-3.754 4.76,-7.543 8,-13 4.892,1.117 7.248,3.533 8.005,6.766 l 3.995,-2.766 c 2.225,0.022 4.163,1.717 6,4 0.698,-6.275 -2.424,-12.204 -7,-18 l -6,6 -6.949,-3.515 -7.208,10.111 -6.843,-2.596 -2.891,3 -3.339,-2.447 -3.997,2.834 z"
             style="fill:#000000;fill-opacity:1;fill-rule:nonzero;stroke:none"
             id="path94" /></g><g
           id="g96"
           transform="translate(61.437,278.4351)"><path
             d="M 0,0 C -1.576,4.663 -0.83,9.195 1.396,13.644 2.091,9.008 4.099,6.326 7.063,5.065 c -0.871,3.691 0.375,6.6 3,9 0.595,-5.155 2.062,-8.826 5,-10 1.381,3.167 3.842,5.39 7,7 2.738,-3.754 4.76,-7.543 8,-13 4.892,1.117 7.248,3.533 8.005,6.766 l 3.995,-2.766 c 2.225,0.022 4.163,1.717 6,4 0.698,-6.275 -2.424,-12.204 -7,-18 l -6,6 -6.949,-3.515 -7.208,10.111 -6.843,-2.596 -2.891,3 -3.339,-2.447 -3.997,2.834 z"
             style="fill:none;stroke:#ffffff;stroke-width:2;stroke-linecap:butt;stroke-linejoin:miter;stroke-miterlimit:10;stroke-dasharray:none;stroke-opacity:1"
             id="path98" /></g><g
           id="g100"
           transform="translate(84.5,198.5)"><path
             d="m 0,0 c 17.9,35.407 59.467,62.336 119,68 l -12,4 c 11.697,2.792 35.529,2.583 53,2 l -6.5,4.357 C 181.127,79.138 206.046,78.194 229,76 l -3,-4 10,-1 -6,-7 9.572,-5.505 L 234,54 c 7.849,-5.716 14.075,-11.976 18.768,-18.751 -6.601,1.261 -13.085,1.047 -19.438,-0.844 l 0.148,-3.174 c -27.788,2.599 -54.088,3.7 -78.2,2.592 C 115,76 52,50 40.517,10.028 21.872,8.476 6.393,3.589 0,0"
             style="fill:#000000;fill-opacity:1;fill-rule:nonzero;stroke:none"
             id="path102" /></g><g
           id="g104"
           transform="translate(84.5,198.5)"><path
             d="m 0,0 c 17.9,35.407 59.467,62.336 119,68 l -12,4 c 11.697,2.792 35.529,2.583 53,2 l -6.5,4.357 C 181.127,79.138 206.046,78.194 229,76 l -3,-4 10,-1 -6,-7 9.572,-5.505 L 234,54 c 7.849,-5.716 14.075,-11.976 18.768,-18.751 -6.601,1.261 -13.085,1.047 -19.438,-0.844 l 0.148,-3.174 c -27.788,2.599 -54.088,3.7 -78.2,2.592 C 115,76 52,50 40.517,10.028 21.872,8.476 6.393,3.589 0,0 Z"
             style="fill:none;stroke:#ffffff;stroke-width:2;stroke-linecap:butt;stroke-linejoin:miter;stroke-miterlimit:10;stroke-dasharray:none;stroke-opacity:1"
             id="path106" /></g><g
           id="g108"
           transform="translate(146.3281,232.7461)"><path
             d="m 0,0 c -11.175,-7.577 -15.815,-15.714 -15.828,-24.246 l 7.15,7.032 c 12.85,-27.032 79.85,-31.032 92.983,15.312 l 5.867,-2.344 c -6.89,16.79 -28.918,22.592 -50,21 C 54.71,-10.357 4.172,-31.246 0,0"
             style="fill:#000000;fill-opacity:1;fill-rule:nonzero;stroke:none"
             id="path110" /></g><g
           id="g112"
           transform="translate(146.3281,232.7461)"><path
             d="m 0,0 c -11.175,-7.577 -15.815,-15.714 -15.828,-24.246 l 7.15,7.032 c 12.85,-27.032 79.85,-31.032 92.983,15.312 l 5.867,-2.344 c -6.89,16.79 -28.918,22.592 -50,21 C 54.71,-10.357 4.172,-31.246 0,0 Z"
             style="fill:none;stroke:#ffffff;stroke-width:2;stroke-linecap:butt;stroke-linejoin:miter;stroke-miterlimit:10;stroke-dasharray:none;stroke-opacity:1"
             id="path114" /></g><g
           id="g116"
           transform="translate(123.5,201.5)"><path
             d="m 0,0 c 50.504,-47.974 137.132,-40.13 140,28 24.53,0.44 50.676,-4.071 69,-9 -62.311,9.451 -65,-7 -51,-10 21.298,-4.672 35.039,-11.799 49,-31 -25.325,22.304 -55,34 -58,17 11.945,-6.178 23.531,-12.995 32.308,-24.821 C 153.896,-10.375 131,-8 138,-14 c 0.612,0.323 28.149,-24.864 27,-26 -4.356,5.383 -35.184,31.996 -37,15.879 11.778,-14.699 21.785,-28.506 23,-37.879 -20.512,34.231 -34,42 -39.529,28.47 L 124,-62 c -12.473,25.609 -29,33 -27,25 l 4,-11 c -5.315,11.372 -11.814,14.119 -19.335,9.425 L 82,-42 c -7.465,6.124 -12.701,8.066 -15.622,5.668 L 55.139,-33.63 C 46.426,-31.065 38.064,-27.821 30,-24 c -3,1 -1.247,-3.34 1,-6 -5.408,2.416 -10.385,6.855 -15,13 -2.094,2.46 -0.459,-2.004 2,-8 -2.988,2.308 -4.933,4.898 -5,8 0,3 -1.613,1.535 -2,-2 C 8.225,-8.456 2.794,-5.292 0,0"
             style="fill:#000000;fill-opacity:1;fill-rule:nonzero;stroke:none"
             id="path118" /></g><g
           id="g120"
           transform="translate(123.5,201.5)"><path
             d="m 0,0 c 50.504,-47.974 137.132,-40.13 140,28 24.53,0.44 50.676,-4.071 69,-9 -62.311,9.451 -65,-7 -51,-10 21.298,-4.672 35.039,-11.799 49,-31 -25.325,22.304 -55,34 -58,17 11.945,-6.178 23.531,-12.995 32.308,-24.821 C 153.896,-10.375 131,-8 138,-14 c 0.612,0.323 28.149,-24.864 27,-26 -4.356,5.383 -35.184,31.996 -37,15.879 11.778,-14.699 21.785,-28.506 23,-37.879 -20.512,34.231 -34,42 -39.529,28.47 L 124,-62 c -12.473,25.609 -29,33 -27,25 l 4,-11 c -5.315,11.372 -11.814,14.119 -19.335,9.425 L 82,-42 c -7.465,6.124 -12.701,8.066 -15.622,5.668 L 55.139,-33.63 C 46.426,-31.065 38.064,-27.821 30,-24 c -3,1 -1.247,-3.34 1,-6 -5.408,2.416 -10.385,6.855 -15,13 -2.094,2.46 -0.459,-2.004 2,-8 -2.988,2.308 -4.933,4.898 -5,8 0,3 -1.613,1.535 -2,-2 C 8.225,-8.456 2.794,-5.292 0,0 Z"
             style="fill:none;stroke:#ffffff;stroke-width:2;stroke-linecap:butt;stroke-linejoin:miter;stroke-miterlimit:10;stroke-dasharray:none;stroke-opacity:1"
             id="path122" /></g><g
           id="g124"
           transform="translate(316.5,275.5)"><path
             d="m 0,0 c -0.258,-0.087 13.688,-4.333 11,-5 l -6,-8 10,-6 -6,-5 c 6.863,-5.478 14.774,-13.899 20,-21 -6.604,-0.575 -13.663,-0.998 -10,-5 5,-10 11.687,-16.603 -0.787,-18.306 C 26,-80 31.532,-85.916 19,-86 25,-98 30.492,-106.923 18.27,-106.141 20,-118 23.691,-122.66 10.527,-121.665 14,-138 12.669,-144.702 -6,-142 c 9,-16 6.599,-22.811 -15,-18 3.796,-11.193 1.686,-17.573 -20,-8 1.492,-12.542 -0.473,-21.07 -23.039,-5.671 2.039,-14.329 -2.809,-15.999 -25.961,0 0,-14.329 -4.975,-11.704 -19.586,0 -1.414,-11.329 -4.932,-11.262 -20.983,2.48 -1.431,-8.809 -5.118,-7.854 -13.62,2.91 C -148,-183 -149,-169 -156,-167 c -5,-5 -2,-8 -10.226,4.315 -6.774,-7.315 -3.774,-1.315 -8.163,2.724 -19.411,-5.465 -28.965,11.856 -38.611,28.961 4.372,-16.91 10.997,-32.258 25.648,-42.038 5.505,1.381 5.352,-3.962 10.352,-10.962 2.387,-0.367 3.97,0.781 4.683,3.57 4.239,-8.602 7.84,-10.99 10.545,-4.636 5.25,-9.368 8.647,-8.382 11.431,-3.963 10.726,-13.434 14.447,-12.17 15.341,-4.971 4,-10 22,-14 21.869,-6.218 C -100,-211 -86.647,-208.568 -91,-201 c 20,-13 26,-8 21,1 18.291,-15.136 26,-6 21,1 14.121,-16.82 40,-9 27,6 17,-5 39,-1 28,12 33,-2 44.433,9.837 30,22 22.896,-0.193 28.95,7.425 20,22 11.903,0.681 9.54,9.895 -1,24 9.757,-2.348 5.156,6.98 1.397,15.625 C 57,-94 81,-101 52.935,-72.678 c 6.499,7.145 3.779,6.4 -9.935,20.678 9.383,3.843 -1,11 -11,17 7.991,2.808 4.439,8.781 -4.355,16.193 C 27,-12 37,-19 21,-7 24.556,-4.31 12.101,4.084 0,0"
             style="fill:#000000;fill-opacity:1;fill-rule:nonzero;stroke:none"
             id="path126" /></g><g
           id="g128"
           transform="translate(316.5,275.5)"><path
             d="m 0,0 c -0.258,-0.087 13.688,-4.333 11,-5 l -6,-8 10,-6 -6,-5 c 6.863,-5.478 14.774,-13.899 20,-21 -6.604,-0.575 -13.663,-0.998 -10,-5 5,-10 11.687,-16.603 -0.787,-18.306 C 26,-80 31.532,-85.916 19,-86 25,-98 30.492,-106.923 18.27,-106.141 20,-118 23.691,-122.66 10.527,-121.665 14,-138 12.669,-144.702 -6,-142 c 9,-16 6.599,-22.811 -15,-18 3.796,-11.193 1.686,-17.573 -20,-8 1.492,-12.542 -0.473,-21.07 -23.039,-5.671 2.039,-14.329 -2.809,-15.999 -25.961,0 0,-14.329 -4.975,-11.704 -19.586,0 -1.414,-11.329 -4.932,-11.262 -20.983,2.48 -1.431,-8.809 -5.118,-7.854 -13.62,2.91 C -148,-183 -149,-169 -156,-167 c -5,-5 -2,-8 -10.226,4.315 -6.774,-7.315 -3.774,-1.315 -8.163,2.724 -19.411,-5.465 -28.965,11.856 -38.611,28.961 4.372,-16.91 10.997,-32.258 25.648,-42.038 5.505,1.381 5.352,-3.962 10.352,-10.962 2.387,-0.367 3.97,0.781 4.683,3.57 4.239,-8.602 7.84,-10.99 10.545,-4.636 5.25,-9.368 8.647,-8.382 11.431,-3.963 10.726,-13.434 14.447,-12.17 15.341,-4.971 4,-10 22,-14 21.869,-6.218 C -100,-211 -86.647,-208.568 -91,-201 c 20,-13 26,-8 21,1 18.291,-15.136 26,-6 21,1 14.121,-16.82 40,-9 27,6 17,-5 39,-1 28,12 33,-2 44.433,9.837 30,22 22.896,-0.193 28.95,7.425 20,22 11.903,0.681 9.54,9.895 -1,24 9.757,-2.348 5.156,6.98 1.397,15.625 C 57,-94 81,-101 52.935,-72.678 c 6.499,7.145 3.779,6.4 -9.935,20.678 9.383,3.843 -1,11 -11,17 7.991,2.808 4.439,8.781 -4.355,16.193 C 27,-12 37,-19 21,-7 24.556,-4.31 12.101,4.084 0,0 Z"
             style="fill:none;stroke:#ffffff;stroke-width:2;stroke-linecap:butt;stroke-linejoin:miter;stroke-miterlimit:10;stroke-dasharray:none;stroke-opacity:1"
             id="path130" /></g><g
           id="g132"
           transform="translate(74.626,196.1309)"><path
             d="m 0,0 c -25.197,-16.053 -33.126,-62.631 -20.126,-103.631 2.131,21.187 18.546,39.191 33,54 1.476,1.512 0,4 -1.492,3.39 0,0 -26.121,-23.268 -32.508,-42.39 1.043,11.363 7.715,25.186 32.905,51.625 C 10.96,-26.039 6.273,-13.369 0,0"
             style="fill:#000000;fill-opacity:1;fill-rule:nonzero;stroke:none"
             id="path134" /></g><g
           id="g136"
           transform="translate(74.626,196.1309)"><path
             d="m 0,0 c -25.197,-16.053 -33.126,-62.631 -20.126,-103.631 2.131,21.187 18.546,39.191 33,54 1.476,1.512 0,4 -1.492,3.39 0,0 -26.121,-23.268 -32.508,-42.39 1.043,11.363 7.715,25.186 32.905,51.625 C 10.96,-26.039 6.273,-13.369 0,0 Z"
             style="fill:none;stroke:#ffffff;stroke-width:2;stroke-linecap:butt;stroke-linejoin:miter;stroke-miterlimit:10;stroke-dasharray:none;stroke-opacity:1"
             id="path138" /></g><g
           id="g140"
           transform="translate(48.3291,250.6157)"><path
             d="M 0,0 C 7.905,-17.469 14.865,-33.852 19.552,-47.618 2.918,-56.026 -11.146,-52.325 -23.12,-38.77 -20.528,-23.954 -12.527,-11.139 0,0"
             style="fill:#000000;fill-opacity:1;fill-rule:nonzero;stroke:none"
             id="path142" /></g><g
           id="g144"
           transform="translate(48.3291,250.6157)"><path
             d="M 0,0 C 7.905,-17.469 14.865,-33.852 19.552,-47.618 2.918,-56.026 -11.146,-52.325 -23.12,-38.77 -20.528,-23.954 -12.527,-11.139 0,0 Z"
             style="fill:none;stroke:#ffffff;stroke-width:2;stroke-linecap:butt;stroke-linejoin:miter;stroke-miterlimit:10;stroke-dasharray:none;stroke-opacity:1"
             id="path146" /></g><g
           id="g148"
           transform="translate(49.8857,258.125)"><path
             d="m 0,0 c -22.649,-20.948 -32.889,-43.77 -25.683,-50.224 -4.208,-6.535 -6.618,-12.214 -1.853,-14.481 -4.11,-8.24 -4.323,-13.845 3.222,-14.203 -1.61,-10.215 -2.159,-18.588 3.854,-15.587 -1.364,-5.157 -1.049,-7.745 2.312,-5.668 4.479,-5.265 9.676,-6.575 15.749,-3.066 l -1.913,-9.336 c -2.662,-4.091 -6.188,-6.446 -11.074,-6.06 -1.956,4.576 -4.878,6.024 -8.419,5.466 0.012,2.582 -1.86,4.246 -5.659,4.97 -1.172,6.106 -3.331,8.302 -5.881,8.953 -1.041,11.611 4.959,16.611 -2.462,14.344 -1.579,13.267 7.421,20.267 0.421,19.267 -2,13 9,18 2,17 5.571,20.078 15.639,37.507 32.059,51.193 z"
             style="fill:#000000;fill-opacity:1;fill-rule:nonzero;stroke:none"
             id="path150" /></g><g
           id="g152"
           transform="translate(49.8857,258.125)"><path
             d="m 0,0 c -22.649,-20.948 -32.889,-43.77 -25.683,-50.224 -4.208,-6.535 -6.618,-12.214 -1.853,-14.481 -4.11,-8.24 -4.323,-13.845 3.222,-14.203 -1.61,-10.215 -2.159,-18.588 3.854,-15.587 -1.364,-5.157 -1.049,-7.745 2.312,-5.668 4.479,-5.265 9.676,-6.575 15.749,-3.066 l -1.913,-9.336 c -2.662,-4.091 -6.188,-6.446 -11.074,-6.06 -1.956,4.576 -4.878,6.024 -8.419,5.466 0.012,2.582 -1.86,4.246 -5.659,4.97 -1.172,6.106 -3.331,8.302 -5.881,8.953 -1.041,11.611 4.959,16.611 -2.462,14.344 -1.579,13.267 7.421,20.267 0.421,19.267 -2,13 9,18 2,17 5.571,20.078 15.639,37.507 32.059,51.193 z"
             style="fill:none;stroke:#ffffff;stroke-width:2;stroke-linecap:butt;stroke-linejoin:miter;stroke-miterlimit:10;stroke-dasharray:none;stroke-opacity:1"
             id="path154" /></g></g></g></g></svg>
